<svg version="1.1" id="Layer_1" xmlns="http://www.w3.org/2000/svg" xmlns:xlink="http://www.w3.org/1999/xlink" x="0px" y="0px"
	 width="100%" viewBox="340 350 350 315" enable-background="new 340 350 350 315" xml:space="preserve">
<path fill="#64ffda" opacity="1.000000" stroke="none" 
	d="
M637.699585,599.672668 
	C620.927490,622.664062 599.633606,639.776001 573.926453,650.660278 
	C556.070435,658.220520 537.298096,662.992554 517.479065,663.411377 
	C500.144775,663.777710 483.309937,661.587097 466.839142,656.776978 
	C455.047638,653.333496 443.811218,648.216125 433.166412,641.997009 
	C430.253479,640.295227 427.835114,640.100586 424.836487,641.860352 
	C417.248993,646.313110 409.462830,650.425659 401.802643,654.756592 
	C386.604858,663.348999 371.865662,661.450867 358.399780,651.543457 
	C346.557678,642.830811 339.579895,630.710999 340.733215,615.526367 
	C341.966949,599.282776 350.297913,587.226074 364.676147,579.415222 
	C371.223511,575.858398 371.444305,575.711182 368.553925,569.005798 
	C360.702209,550.790771 356.249878,531.792358 356.080353,512.004089 
	C355.974091,499.598511 356.862579,487.269562 359.235382,474.887451 
	C361.934631,460.802246 367.075958,447.930664 373.372925,435.334717 
	C382.412476,417.252594 394.874908,401.824524 410.284454,388.772949 
	C423.972870,377.179199 438.940826,367.650116 455.907898,361.625671 
	C464.301117,358.645477 472.931976,356.423645 481.588440,354.199127 
	C495.522797,350.618347 509.377350,352.001099 523.258362,351.823151 
	C538.574951,351.626740 552.992493,356.417908 567.273682,361.446777 
	C575.609436,364.382080 583.392395,368.418640 590.879395,373.064789 
	C593.930481,374.958191 596.649963,374.343292 599.749817,372.714569 
	C610.019104,367.318970 619.498901,360.421234 630.644958,356.678070 
	C645.250610,351.773071 658.504578,354.999298 669.888672,364.426331 
	C680.139343,372.914734 686.348145,384.277893 685.379272,398.029297 
	C684.192322,414.876740 675.604492,427.307037 660.611389,435.214874 
	C659.584106,435.756714 658.572815,436.351074 657.496216,436.773407 
	C653.439880,438.364441 653.225098,440.810913 654.921692,444.606903 
	C665.483704,468.239502 670.257996,493.088013 668.153198,518.864624 
	C666.426208,540.014465 660.939209,560.313171 650.554138,579.088379 
	C646.685547,586.082458 642.764343,593.015137 637.699585,599.672668 
M573.840149,521.301270 
	C575.039795,505.730682 560.283142,497.471985 547.463867,503.332703 
	C531.606995,510.582092 516.297607,519.022034 500.674805,526.793152 
	C493.844330,530.190857 487.190948,534.913208 479.758453,535.890808 
	C469.159515,537.284973 458.547913,537.112061 448.525787,530.802612 
	C437.084869,523.599976 430.100037,513.433411 428.104980,500.929779 
	C425.011353,481.541504 434.100616,466.297607 450.796997,456.289825 
	C460.052399,450.742096 469.673004,445.806183 479.090424,440.525635 
	C507.207550,424.759827 535.319214,408.984161 563.380432,393.119202 
	C565.252441,392.060791 567.736694,391.452454 568.546692,389.266968 
	C568.092163,387.773285 567.116455,387.487427 566.204956,387.068817 
	C556.977600,382.831421 547.394470,379.930267 537.447266,377.676636 
	C521.709167,374.110962 505.824615,374.289001 490.344238,376.757172 
	C471.418243,379.774658 453.704620,387.159973 437.658356,398.137909 
	C420.891235,409.608948 407.300842,423.934601 397.298492,441.607300 
	C390.888123,452.933502 386.098602,464.909149 383.535309,477.719086 
	C381.188019,489.449615 378.053284,501.215302 379.508575,513.231323 
	C381.703461,531.354187 385.051086,549.337158 393.670410,565.731628 
	C402.245422,582.041809 412.544586,597.081787 427.358521,608.561890 
	C429.643188,610.332458 431.395630,610.749390 434.048553,609.246887 
	C452.412476,598.846191 470.883820,588.635559 489.283691,578.298096 
	C514.203735,564.297424 539.096863,550.248901 563.986816,536.194702 
	C569.470825,533.098145 573.442139,528.875732 573.840149,521.301270 
M496.866089,601.370117 
	C482.943207,609.378601 469.020325,617.387085 453.943787,626.059204 
	C471.716003,633.549622 488.106567,639.188049 506.129639,639.014160 
	C519.785034,638.882385 533.458252,639.214417 546.640503,635.095520 
	C559.661072,631.027039 572.204712,625.823547 583.653137,618.168701 
	C603.701538,604.763611 619.907959,587.866272 630.458008,566.081055 
	C636.081299,554.469238 639.640320,542.162476 642.230286,529.360657 
	C644.520325,518.041199 645.061279,506.873108 644.028809,495.693451 
	C642.714966,481.466919 638.945984,467.671753 633.090149,454.526001 
	C624.704895,435.702240 613.019592,419.351410 597.238647,405.989258 
	C595.180420,404.246521 593.267639,403.825958 590.895447,405.156219 
	C585.529785,408.165161 580.095886,411.052734 574.744690,414.086670 
	C552.065552,426.945129 529.435730,439.890686 506.729828,452.701599 
	C491.823517,461.111877 476.758789,469.242126 461.877777,477.696350 
	C452.023987,483.294525 449.391479,493.513916 454.558228,503.902740 
	C458.647522,512.125122 469.804901,514.301392 478.230713,510.555176 
	C493.829895,503.619690 508.877380,495.451141 524.229797,487.950134 
	C533.557983,483.392487 542.394958,477.929688 553.456970,477.517090 
	C576.766785,476.647736 594.029968,492.091858 597.764404,513.894592 
	C600.743042,531.284790 593.593567,546.271912 578.098694,555.411682 
	C551.514465,571.092529 524.431396,585.927551 496.866089,601.370117 
M630.479919,383.001740 
	C626.870911,385.064056 623.220581,387.058380 619.670227,389.217224 
	C617.888794,390.300415 616.879272,391.891418 618.928894,393.626953 
	C626.495789,400.034241 632.162292,408.117279 638.492859,415.615540 
	C639.512451,416.823120 640.669128,417.750366 642.379272,416.963715 
	C647.212830,414.740326 652.298584,412.868439 656.177856,409.074158 
	C664.364197,401.067200 662.249695,386.785828 652.320007,381.331390 
	C644.907837,377.259827 637.953369,378.414520 630.479919,383.001740 
M399.335846,615.165710 
	C396.171631,611.532104 392.971497,607.929016 389.850586,604.258606 
	C383.313629,596.570557 383.330780,596.555969 374.542633,601.502991 
	C366.279205,606.154663 362.846069,613.919922 365.349915,623.087158 
	C367.175323,629.770447 375.479614,636.632996 383.689240,635.620911 
	C392.769623,634.501526 399.477875,628.737610 407.241058,623.736084 
	C404.458893,620.733948 402.128387,618.219177 399.335846,615.165710 
z"/>
</svg>